# xmcd
#
# Track frame offsets: 
#        150
#        11323
#        24263
#        38498
#        49618
#        62093
#        72843
#        82978
#        93188
#        104135
#        116958
#        128838
#        140100
#        151975
#        162670
#        172320
#        183448
#        194288
#        205118
#        216410
#        226253
#        235448
#        246370
#        257043
#        268893
#        280808
#        291380
#        300020
#        308815
#        320328
#        332055
#
# Disc length: 4601 seconds
#
# Revision: 3
# Processed by: cddbd v1.5.2PL0 Copyright (c) Steve Scherf et al.
# Submitted via: ExactAudioCopy v1.3
#
DISCID=c811f71f
DTITLE=Merle Travis - Guitar Rags And A Too Fast Past_CD4
DYEAR=1994
DGENRE=Country
TTITLE0=I'm Picking Up The Pieces Of My Heart
TTITLE1=Petticoat Fever
TTITLE2=Start Even
TTITLE3=Guitar Rag
TTITLE4=Cane Bottom Chair
TTITLE5=I'm Knee Deep In Trouble
TTITLE6=Little Miss Sherlock Holmes
TTITLE7=Merle Travis, Georgia Brown and Judy Hayden - Too Much Sugar For
TTITLE7=A Dime
TTITLE8=Merle Travis, Georgia Brown and Judy Hayden - Spoonin' Moon
TTITLE9=Merle Travis and The Whippoorwills - Trouble, Trouble
TTITLE10=Merle Travis, Georgia Brown, Judy Hayden and The Whippoorwills 
TTITLE10=/ El Reno
TTITLE11=Won'tcha Be My Baby
TTITLE12=Dry Bread
TTITLE13=Merle Travis and The Whippoorwills - Lost John Boogie
TTITLE14=Merle Travis and The Whippoorwills - Deep South
TTITLE15=Merle Travis and The Whippoorwills - Boogie In Minor
TTITLE16=Merle Travis and The Whippoorwills - Let's Settle Down (To Runn
TTITLE16=in' Around Together) 
TTITLE17=Done Rovin'
TTITLE18=Faithful Fool
TTITLE19=Love Must Be Ketchin'
TTITLE20=Kinfolks In Carolina
TTITLE21=Kinfolks In Carolina
TTITLE22=Rainy Day Feelin'
TTITLE23=A Too Fast Past
TTITLE24=Knee Deep In Trouble
TTITLE25=Ain't That A Cryin' Shame
TTITLE26=I'll See You In My Dreams
TTITLE27=Cannon Ball Rag
TTITLE28=I'll Have Myself A Ball
TTITLE29=Bayou Baby (A Cajun Lullaby)
TTITLE30=Green Cheese
EXTD=
EXTT0=
EXTT1=
EXTT2=
EXTT3=
EXTT4=
EXTT5=
EXTT6=
EXTT7=
EXTT8=
EXTT9=
EXTT10=
EXTT11=
EXTT12=
EXTT13=
EXTT14=
EXTT15=
EXTT16=
EXTT17=
EXTT18=
EXTT19=
EXTT20=
EXTT21=
EXTT22=
EXTT23=
EXTT24=
EXTT25=
EXTT26=
EXTT27=
EXTT28=
EXTT29=
EXTT30=
PLAYORDER=
